<svg xmlns="http://www.w3.org/2000/svg" xmlns:xlink="http://www.w3.org/1999/xlink" width="16" height="16" viewBox="0 0 16 16"><defs><clipPath id="b"><rect width="16" height="16"/></clipPath></defs><g id="a" clip-path="url(#b)"><g transform="translate(-200.212 -189.464)"><path d="M42.085-556.13h4.8v1.712h-4.8a4.8,4.8,0,0,1-4.8-4.8,4.8,4.8,0,0,1,4.8-4.8h4.8v1.712h-4.8a3.1,3.1,0,0,0-3.093,3.093A3.1,3.1,0,0,0,42.085-556.13Z" transform="translate(165.251 757.623)"/><path d="M1.983,0,3.965,3.965H0A8.837,8.837,0,0,0,1.482,2.008,5.072,5.072,0,0,0,1.983,0Z" transform="matrix(0.883, -0.469, 0.469, 0.883, 201.512, 192.926)"/><circle cx="0.778" cy="0.778" r="0.778" transform="translate(212.897 197.656)"/><circle cx="0.827" cy="0.827" r="0.827" transform="translate(209.617 197.574)"/><circle cx="0.827" cy="0.827" r="0.827" transform="translate(206.074 197.574)"/></g></g></svg>