<svg xmlns="http://www.w3.org/2000/svg" xmlns:xlink="http://www.w3.org/1999/xlink" width="180" height="180" viewBox="0 0 180 180"><defs><clipPath id="b"><rect width="180" height="180"/></clipPath></defs><g id="a" clip-path="url(#b)"><path d="M-8213.845-9130.038a7.582,7.582,0,0,1-1.5-.15l-50.058-22.881a11.209,11.209,0,0,1-4.181-4.226,18.127,18.127,0,0,1-1.411-6.769v-92.985a10.716,10.716,0,0,1,1.264-5.325,11.5,11.5,0,0,1,4.327-3.565l52.547-24.838a7.576,7.576,0,0,1,1.685-.224l.118,0a5.867,5.867,0,0,1,4.141,2.06c1.851,2.16,1.68,6.855,1.672,7.055v141.594c0,.046-.226,4.632-2.726,7.132a12.842,12.842,0,0,1-4.568,2.971A5.236,5.236,0,0,1-8213.845-9130.038Zm-10.367-92.594c-4.687,0-8.5,4.262-8.5,9.5s3.813,9.5,8.5,9.5,8.5-4.262,8.5-9.5S-8219.525-9222.632-8224.212-9222.632Z" transform="translate(8275.212 9300.133)" fill="#ec4646"/><path d="M8355.417,9320.687h33.706s3.9.141,5.743,2.1,1.628,5.751,1.628,5.751v21.7" transform="translate(-8271 -9291)" fill="none" stroke="#707070" stroke-width="7"/><path d="M8355.417,9320.687h33.706s3.9.141,5.743,2.1,1.628,5.751,1.628,5.751v21.7" transform="translate(-8271 -9291)" fill="none" stroke="#ec4646" stroke-width="7"/><path d="M8355.417,9350.239h33.706s3.9-.141,5.743-2.1,1.628-5.751,1.628-5.751v-21.7" transform="translate(-8271 -9205.999)" fill="none" stroke="#ec4646" stroke-width="7"/><path d="M8365.91,9360.093v36.018h42.938V9414.9l37-37-37-37v19.193Z" transform="translate(-8271 -9291)" fill="#ec4646"/></g></svg>