<svg xmlns="http://www.w3.org/2000/svg" xmlns:xlink="http://www.w3.org/1999/xlink" width="180" height="180" viewBox="0 0 180 180"><defs><clipPath id="b"><rect width="180" height="180"/></clipPath></defs><g id="a" clip-path="url(#b)"><path d="M77.338,17.565a9,9,0,0,1,16.324,0l71.394,153.643c1.428,3.072.145,6.316-1.944,8.74a11.624,11.624,0,0,1-4.779,3.194,5.431,5.431,0,0,1-3.207,0L96.234,154.556,88.2,96.339s-.13-4.515-2.226-4.5-2.381,4.529-2.381,4.529l-8.821,58.6L16.845,182.689a6.921,6.921,0,0,1-3.967.543,9.412,9.412,0,0,1-4.871-2.577c-2.116-2.075-3.712-5.9-2.062-9.448Z" transform="translate(187.378 4.738) rotate(90)" fill="#23689b"/></g></svg>